<?xml version="1.0" encoding="UTF-8"?>
<svg id="Warstwa_1" data-name="Warstwa 1" xmlns="http://www.w3.org/2000/svg" xmlns:xlink="http://www.w3.org/1999/xlink" viewBox="0 0 120 159.11">
  <defs>
    <style>
      .cls-1 {
        fill: #333f88;
      }

      .cls-2 {
        fill: none;
      }

      .cls-3 {
        fill: #eceef8;
      }

      .cls-4 {
        clip-path: url(#clippath);
      }

      .cls-5 {
        opacity: .5;
      }
    </style>
    <clipPath id="clippath">
      <rect class="cls-2" x="-365.16" y="289.4" width="283.46" height="184.25"/>
    </clipPath>
  </defs>
  <g class="cls-5">
    <g class="cls-4">
      <g>
        <path class="cls-3" d="M89.51,140.85c.21.06.37.22.44.44.54,1.78,1.1,4.2,1.3,5.19.05.29.24.36.3.38.04.01.19.03.52-.24.84-.72,2.94-2.95,4.08-4.19.16-.18.44-.26.67-.2.38.11.54.49.45.81-.02.08-.07.18-.14.25-1.15,1.28-3.25,3.52-4.21,4.34-.51.44-1.13.65-1.72.49-.44-.12-1.07-.55-1.23-1.41-.17-.93-.73-3.35-1.25-5.04-.03-.12-.05-.24-.01-.37.09-.31.45-.55.81-.45ZM95.86,140.82c-.02.08-.06.14-.11.22-.59.75-1.73,2.1-2.71,3.11-.03.04-.07.08-.11.11-.16.12-.36.16-.56.11-.3-.08-.46-.34-.47-.59-.26-1.15-.57-2.61-.91-3.73-.03-.12-.04-.26-.01-.37.09-.31.43-.56.81-.45.21.06.37.22.44.44.18.6.35,1.27.5,1.92.39-1.11.85-2.55,1.39-4.22.56-1.74,1.63-4.97,2.45-7.89.09-.34.47-.55.81-.45s.55.47.45.81c-.83,2.96-1.9,6.19-2.46,7.93-.33,1.03-.63,1.97-.91,2.81.1-.12.18-.23.26-.32.18-.22.45-.3.7-.23.38.11.54.49.45.81Z"/>
        <path class="cls-3" d="M124.21,167.05c.35-.26.65-.22.92.13.08.1.14.22.2.45.34,1.11,1.18,3.96,1.62,5.27.15.46.1.75-.15.93-.38.29-.65.22-1.09,0-1.3-.63-2.65-.84-3.38-.94s-.93-.15-1.07-.34c-.22-.3-.22-.65.13-.92.19-.14.41-.14,1.14-.04.4.06,1.56.19,2.84.7l-1.1-3.7c-.89.59-2.3,1.51-2.54,1.69-.35.26-.65.22-.92-.13s-.22-.65.13-.92c.14-.1.64-.42,1.22-.81-1.82-2.31-3.83-4.84-5.02-6.42-.52-.7-1.63-2.86-1.98-3.69-.17-.41-.13-.72.15-.93.35-.26.65-.22.92.13.05.07.09.15.18.35.35.83,1.26,2.65,1.78,3.35,1.02,1.36,3.56,4.55,5.06,6.47.46-.29.84-.55.96-.64Z"/>
        <path class="cls-3" d="M116.36,123.72s-.02.09-.02.13c-.22,1.07-.31,3.38-.41,6.43-.05,1.32-.14,3.44-.19,5.66.25-.49.48-.96.69-1.39.11-.24.35-.37.59-.37.39,0,.65.33.65.65,0,.09-.02.2-.07.28-.52,1.11-1.24,2.53-1.98,3.75-.11.17-.31.33-.57.33-.29,0-.55-.21-.63-.48-.39-.87-.94-2.11-1.68-3.33-.07-.11-.09-.22-.09-.33,0-.33.26-.65.65-.65.22,0,.44.13.57.33.2.33.39.66.56.98.05-2.16.14-4.2.18-5.47.11-3.05.2-5.36.46-6.65.07-.31.33-.52.63-.52.39,0,.65.33.65.65ZM118.54,127.42c0-.09.02-.15.04-.24.37-.88,1.1-2.49,1.76-3.73.02-.05.05-.09.08-.13.12-.16.31-.25.51-.25.31,0,.53.2.62.44.56,1.03,1.25,2.35,1.89,3.35.07.11.11.24.11.35,0,.33-.26.65-.65.65-.22,0-.41-.11-.54-.31-.34-.52-.68-1.13-1-1.72-.08,1.17-.13,2.68-.2,4.44-.07,1.83-.22,5.23-.22,8.26,0,.35-.31.65-.65.65s-.65-.31-.65-.65c0-3.07.15-6.47.22-8.3.04-1.08.07-2.07.12-2.95-.06.14-.11.27-.16.38-.11.26-.35.41-.61.41-.39,0-.65-.33-.65-.65Z"/>
        <path class="cls-3" d="M105.67,104.98s.03.08.06.12c.08.18.36.61.73,1.17,2.3-1.75,4.85-3.89,6.02-4.77.85-.64,1.64-1.2,2.36-1.68-.1.03-.19.06-.27.09-.28.1-.59,0-.75-.22-.23-.31-.13-.71.13-.91.05-.04.09-.06.15-.09,1.09-.41,2.77-.65,4.1-.86.24-.04.48.07.62.26s.16.43.08.62c0,.02-.02.04-.03.06-.58,1.16-1.31,2.68-1.75,3.7-.05.12-.12.2-.21.26-.26.19-.67.18-.91-.13-.14-.19-.18-.43-.08-.64.24-.55.54-1.22.86-1.9-.97.61-2.18,1.43-3.54,2.45-1.11.83-3.72,3.02-6.06,4.8.44.62.92,1.29,1.39,1.92.21.28.15.7-.13.91s-.7.15-.91-.13c-1.32-1.76-2.63-3.66-2.99-4.39-.13-.28-.05-.61.19-.79.31-.23.71-.13.9.13Z"/>
        <path class="cls-3" d="M87.56,118.15c-.03.12-.11.26-.22.34-.97.79-1.99,2.08-2.71,2.97-.16.2-.43.27-.66.21-.27-.07-.43-.31-.47-.5-.2-.92-.54-2.44-.84-3.52-.04-.12-.03-.23,0-.33.08-.31.41-.56.79-.46.23.06.41.22.46.45.18.69.39,1.5.58,2.31.59-.71,1.31-1.53,2.05-2.14.17-.13.38-.17.57-.12.35.09.55.46.46.79ZM87.89,106.65c.23.06.42.27.47.5.17.8.18,1.7-.14,2.93-.51,1.94-1.88,2.92-2.24,4.31-.28,1.06-.25,1.74-.13,2.35.02.09.01.2,0,.29-.08.31-.41.56-.79.46-.23-.06-.42-.27-.47-.5-.17-.8-.18-1.7.14-2.93.51-1.94,1.88-2.92,2.24-4.31.28-1.06.25-1.74.13-2.35-.02-.09-.01-.2,0-.29.08-.31.41-.56.79-.46ZM85.6,106.05c.02-.06.03-.1.06-.16.6-1,1.77-2.23,2.67-3.22.16-.18.42-.25.65-.19.25.07.45.34.47.5.27,1.27.64,2.91.94,3.99.04.12.03.23,0,.33-.08.31-.41.56-.79.46-.23-.06-.41-.22-.46-.45-.22-.79-.48-1.84-.7-2.86-.66.74-1.34,1.54-1.66,2.08-.15.25-.45.37-.72.3-.38-.1-.54-.48-.46-.79Z"/>
        <path class="cls-3" d="M21.89,130.74c-.13,0-.26-.04-.37-.11-1.26-.85-2.38-1.48-3.38-1.92-.54-.24-1.48-.76-1.48-1.79,0-.7.39-1.22.92-1.61.92-.68,2.44-1.66,3.99-2.55.11-.07.22-.09.33-.09.33,0,.65.26.65.65,0,.33-.2.5-.46.65,1.29-.02,2.72-.11,3.88-.22.54-.04.68-.28.72-.72.13-1.29.2-3.36.46-4.64.04-.26.24-.46.5-.5.98-.2,2.51-.24,4.05-.24.37,0,.65.28.65.65,0,.04-.02.09-.02.13-.22,1.02-.33,5.14-.41,7.74-.04,1.63-1.18,2.77-2.81,2.81-1.11.04-5.21.17-7.36.22.31.2.81.39.81.87,0,.37-.33.65-.65.65ZM29.06,127.69c.98-.04,1.5-.57,1.55-1.55.07-2.22.13-5.43.33-7.17-1,.02-1.94.04-2.59.13-.15,1.13-.24,2.9-.35,4.07-.09.87-.7,1.76-1.9,1.9-1.57.15-3.53.22-5.08.22-.24,0-.46-.13-.57-.33-.85.52-1.59,1.02-2.09,1.39-.35.26-.39.39-.39.57,0,.07.24.39.7.59.5.22,1,.48,1.55.76.11-.22.33-.37.59-.37,1.5,0,6.95-.17,8.26-.22Z"/>
        <path class="cls-3" d="M65.36,146.72c.05-.07.1-.12.17-.18.79-.55,2.3-1.53,3.54-2.21.21-.12.46-.12.67.01.22.14.3.42.29.6-.09,1.19-.22,2.73-.22,3.95,0,.13-.04.26-.1.35-.18.28-.57.41-.9.2-.18-.12-.29-.31-.29-.55,0-.88.07-1.89.14-2.81-.89.54-1.83,1.16-2.35,1.53-.23.16-.52.16-.74.02-.33-.21-.37-.63-.2-.9ZM63.69,154.18s-.07.06-.09.1c-.39.4-1.41,1.84-2.21,3.09-.19.29-.61.39-.9.2s-.39-.61-.2-.9c.85-1.32,1.85-2.73,2.39-3.29.22-.22.56-.26.81-.1.33.21.37.63.2.9ZM67.28,148.98s-.07.06-.09.1c-.39.4-1.41,1.84-2.21,3.09-.19.29-.61.39-.9.2s-.39-.61-.2-.9c.85-1.32,1.85-2.73,2.39-3.29.22-.22.56-.26.81-.1.33.21.37.63.2.9Z"/>
        <path class="cls-3" d="M22.88,97.85c.22.03.4.16.51.35.71,1.36,1.44,2.73,1.94,3.47.09.14.12.28.1.45-.04.35-.36.57-.66.58-1.42-.02-2.81-.02-4.15-.19-.35-.04-.61-.36-.57-.73.1-.84,1.34-.51,2.12-.48-.52-.2-1.07-.38-1.64-.45-3.42-.43-6.26,2.62-6.71,6.28-.1.78-.04,1.75.11,2.32.01.09.02.16.01.24-.04.32-.34.62-.73.57-.26-.03-.48-.21-.55-.49-.21-.79-.25-1.85-.13-2.81.51-4.13,3.8-7.96,8.17-7.42.8.1,1.56.33,2.25.63-.23-.45-.48-.92-.73-1.39-.07-.12-.08-.25-.06-.38.04-.32.36-.61.73-.57Z"/>
        <path class="cls-3" d="M51.2,107.76c-.13,0-.28-.04-.39-.13-1.02-.74-2.55-1.42-3.6-1.9-.2-.09-.37-.31-.37-.59s.17-.5.37-.59c.85-.44,2.24-1.15,3.22-1.72.11-.07.22-.09.33-.09.33,0,.65.26.65.65,0,.61-.81.85-1.24,1.09,2.31-.02,5.08-.07,7.58-.15,1.18-3.57,3.07-5.08,4.99-5.08,1.66,0,2.83,1.18,2.83,2.83,0,1.92-1.44,3.09-3.2,3.27-1,.11-2.24.17-3.62.24-.22.78-.39,1.68-.54,2.68-.04.33-.33.57-.65.57-.39,0-.65-.33-.65-.65,0-.89.31-1.83.48-2.55-2.35.09-4.92.11-7.08.13.44.24.89.52,1.29.81.17.13.26.33.26.52,0,.37-.31.65-.65.65ZM64.27,102.1c0-.96-.57-1.53-1.53-1.53-1.09,0-2.51.76-3.57,3.7,2.38-.11,5.1.09,5.1-2.18Z"/>
        <path class="cls-3" d="M-.41,167.05c.35-.26.65-.22.92.13.08.1.14.22.2.45.34,1.11,1.18,3.96,1.62,5.27.15.46.1.75-.15.93-.38.29-.65.22-1.09,0-1.3-.63-2.65-.84-3.38-.94s-.93-.15-1.07-.34c-.22-.3-.22-.65.13-.92.19-.14.41-.14,1.14-.04.4.06,1.56.19,2.84.7l-1.1-3.7c-.89.59-2.3,1.51-2.54,1.69-.35.26-.65.22-.92-.13s-.22-.65.13-.92c.14-.1.64-.42,1.22-.81-1.82-2.31-3.83-4.84-5.02-6.42-.52-.7-1.63-2.86-1.98-3.69-.17-.41-.13-.72.15-.93.35-.26.65-.22.92.13.05.07.09.15.18.35.35.83,1.26,2.65,1.78,3.35,1.02,1.36,3.56,4.55,5.06,6.47.46-.29.84-.55.96-.64Z"/>
        <path class="cls-3" d="M49.52,127.13c-.3,0-.6-.22-.65-.54-.19-1.24-.63-2.67-1.01-3.7-.05-.09-.07-.18-.07-.29,0-.32.26-.65.65-.65.11,0,.21.03.3.08.87.27,2.46.6,3.49.81.3.06.52.32.52.63,0,.39-.32.65-.65.65-.04,0-.09-.02-.13-.02-.42-.09-.91-.18-1.43-.29,3.68,3.65,6.49,6.31,9.14,9.15.11.13.17.28.17.43,0,.34-.28.65-.65.65-.17,0-.34-.09-.47-.22-2.56-2.74-5.28-5.34-8.84-8.85.15.51.26,1.05.26,1.52,0,.32-.26.65-.65.65Z"/>
        <path class="cls-3" d="M29.7,150.19c-.11-.16-.16-.37-.09-.57.15-.42.31-.86.52-1.27-2.22,1.67-5.19,3.93-7.3,5.43.31.73.65,1.42,1.01,1.93.2.28.13.7-.15.9s-.7.13-.9-.15c-.41-.58-.75-1.27-1.05-1.95-2.49,1.52-4.55,1.53-5.72-.1-1.08-1.51-.76-3.43.75-4.51s3.43-.76,4.51.75c.41.58.74,1.25,1.03,1.92,2.17-1.56,5.16-3.83,7.35-5.47-.51.07-1.39.36-1.74-.13-.23-.32-.11-.71.15-.9.09-.06.19-.11.31-.12,1.11-.11,2.65-.33,3.58-.47.21-.04.47.03.64.26s.15.5.04.69c-.57.99-1.4,2.41-1.8,3.59-.04.13-.13.26-.24.33-.28.2-.69.15-.9-.15ZM17.52,150.95c-.95.68-1.13,1.76-.45,2.71.61.86,1.72,1.18,4.15-.35-.31-.73-.65-1.42-1-1.91-.68-.95-1.76-1.13-2.71-.45Z"/>
        <path class="cls-3" d="M51.46,67.57c0-.09.02-.15.04-.24.37-.88,1.1-2.49,1.76-3.73.02-.05.05-.09.08-.13.12-.16.31-.25.51-.25.31,0,.53.2.62.44.56,1.03,1.25,2.35,1.89,3.35.07.11.11.24.11.35,0,.33-.26.65-.65.65-.22,0-.41-.11-.54-.31-.34-.52-.68-1.13-1-1.72-.08,1.17-.13,2.68-.2,4.44-.07,1.83-.22,5.23-.22,8.26,0,.35-.31.65-.65.65s-.65-.31-.65-.65c0-3.07.15-6.47.22-8.3.04-1.08.07-2.07.12-2.95-.06.14-.11.27-.16.38-.11.26-.35.41-.61.41-.39,0-.65-.33-.65-.65ZM57.34,67.57c0-.09.02-.15.04-.24.37-.88,1.1-2.49,1.76-3.73.02-.05.05-.09.08-.13.12-.16.31-.25.51-.25.31,0,.53.2.62.44.56,1.03,1.25,2.35,1.89,3.35.07.11.11.24.11.35,0,.33-.26.65-.65.65-.22,0-.41-.11-.54-.31-.34-.52-.68-1.13-1-1.72-.08,1.17-.13,2.68-.2,4.44-.07,1.83-.22,5.23-.22,8.26,0,.35-.31.65-.65.65s-.65-.31-.65-.65c0-3.07.15-6.47.22-8.3.04-1.08.07-2.07.12-2.95-.06.14-.11.27-.16.38-.11.26-.35.41-.61.41-.39,0-.65-.33-.65-.65Z"/>
        <path class="cls-3" d="M102.76,74.11c0,2.99-1.59,5.01-3.49,5.01-3.36,0-6.97-2.81-6.97-6.32,0-4.58,3.88-7.41,8.28-7.41.22,0,.41,0,.63.02l-.87-.87c-.13-.13-.2-.28-.2-.46,0-.35.31-.65.65-.65.17,0,.33.07.46.2,1.05,1.07,2.07,1.98,2.79,2.57.15.11.24.28.24.5,0,.33-.22.57-.48.63-1.35.39-2.61.76-3.94,1.09-.04.02-.11.02-.15.02-.33,0-.65-.26-.65-.65,0-.28.22-.57.5-.63.54-.13,1.05-.28,1.59-.44-.2-.02-.39-.02-.57-.02-3.88,0-6.97,2.4-6.97,6.1,0,2.59,2.92,5.01,5.67,5.01.98,0,1.87-.87,2.18-3.77.04-.33.33-.59.65-.59.37,0,.65.31.65.65Z"/>
        <path class="cls-3" d="M75.63,81.96c-.63,0-.96,1-1.18,1.42-.07-1.42-.13-2.81-.13-3.16,0-.83.48-1.31,1.31-1.31,1.44,0,3.9.07,5.38.22h.07c.35,0,.65-.28.65-.65,0-.33-.26-.61-.59-.65-1.57-.15-4.03-.22-5.51-.22s-2.61,1.09-2.61,2.61c0,.39.07,1.81.13,3.18-.24-.46-.44-.89-.63-1.29-.11-.24-.35-.37-.59-.37-.39,0-.65.33-.65.65,0,.09.02.2.07.28.52,1.11,1.24,2.53,1.98,3.75.11.17.31.33.57.33.28,0,.5-.17.59-.39.39-.87.96-2.16,1.72-3.42.07-.11.09-.22.09-.33,0-.33-.26-.65-.65-.65Z"/>
        <path class="cls-3" d="M40.3,65.9s-.06.06-.09.1c-.52.58-1.33,1.87-2.09,3.17-.18.3-.59.41-.89.23-2.4-1.41-7.67-4.16-9.71-5.23-.42.41-1.36,1.5-2.02,1.11-.11-.07-.18-.16-.25-.27-.79-1.58-2.06-3.72-2.58-4.5-.48-.74-.32-1.48-.09-1.87.31-.53.9-.81,1.58-.84,1.26-.07,4.32.09,6.04.22.1,0,.2.04.28.09.28.17.43.56.23.89l-.43.73c2.22,1.18,7.39,3.86,9.79,5.28.32.19.42.58.23.89ZM37.95,66.94c-.42.21-.86.43-1.28.64.23.13.46.25.67.37.2-.34.41-.69.62-1ZM34.33,66.3c.33.17.63.35.94.5.96-.47,2.05-.99,2.85-1.41-.3-.18-.6-.35-.95-.53-.68.38-1.78.92-2.84,1.44ZM34.62,63.49c-.64.36-1.74.95-2.77,1.48.35.18.71.39,1.06.57.95-.45,2.05-.99,2.88-1.42-.39-.2-.78-.43-1.17-.64ZM29.49,63.73c.31.16.61.33.94.5.9-.46,1.98-1.04,2.8-1.49-.29-.15-.57-.31-.87-.46-.67.36-1.81.93-2.87,1.45ZM25.77,63.19l.29.55c.46-.39,1.02-1.3,1.65-.95.09.06.24.11.37.19.93-.46,2.04-.97,2.88-1.42-.35-.18-.69-.38-.98-.53-1.02.57-2.95,1.53-4.2,2.16ZM28.81,59.64l.23-.39c-.07-.01-.1.04-.17.08-.86.43-2.98,1.51-4.13,2.07.13.2.25.43.38.65,1.03-.51,2.58-1.29,3.64-1.85-.08-.17-.06-.37.05-.55ZM24.07,60.27c.58-.29,1.47-.73,2.31-1.14-.9-.02-1.7-.04-2.14-.02-.42.03-.52.15-.54.19-.15.26.18.69.36.97Z"/>
        <path class="cls-3" d="M61.9,39.6c.35-.26.65-.22.92.13.08.1.14.22.2.45.34,1.11,1.18,3.96,1.62,5.27.15.46.1.75-.15.93-.38.29-.65.22-1.09,0-1.3-.63-2.65-.84-3.38-.94s-.93-.15-1.07-.34c-.22-.3-.22-.65.13-.92.19-.14.41-.14,1.14-.04.4.06,1.56.19,2.84.7l-1.1-3.7c-.89.59-2.3,1.51-2.54,1.69-.35.26-.65.22-.92-.13s-.22-.65.13-.92c.14-.1.64-.42,1.22-.81-1.82-2.31-3.83-4.84-5.02-6.42-.52-.7-1.63-2.86-1.98-3.69-.17-.41-.13-.72.15-.93.35-.26.65-.22.92.13.05.07.09.15.18.35.35.83,1.26,2.65,1.78,3.35,1.02,1.36,3.56,4.55,5.06,6.47.46-.29.84-.55.96-.64Z"/>
        <path class="cls-3" d="M128.45,55.32c.06,0,.11,0,.17.02,1.12.32,2.61,1.14,3.79,1.77.22.11.34.34.34.58s-.13.44-.31.55c-.02.01-.04.03-.06.03-1.16.58-2.65,1.36-3.62,1.92-.11.06-.22.09-.32.09-.32,0-.65-.26-.65-.65,0-.24.11-.45.32-.56.52-.3,1.16-.65,1.83-1.01-1.14-.09-2.6-.16-4.31-.16-1.47,0-5.15.22-8.19.22-.34,0-.65-.3-.65-.65s.3-.65.65-.65c3,0,6.64-.22,8.19-.22,1.06,0,2.03.02,2.9.07-.1-.03-.19-.06-.27-.09-.28-.09-.47-.34-.47-.62,0-.39.32-.65.65-.65Z"/>
        <path class="cls-3" d="M84.75,44.63s-.02.09-.02.13c-.22,1.06-.3,3.34-.41,6.36-.05,1.3-.14,3.41-.18,5.6.25-.48.47-.95.68-1.38.11-.24.34-.37.58-.37.39,0,.65.32.65.65,0,.09-.02.19-.06.28-.52,1.1-1.23,2.5-1.96,3.71-.11.17-.3.32-.56.32-.29,0-.54-.21-.62-.48-.39-.86-.93-2.09-1.66-3.29-.06-.11-.09-.22-.09-.32,0-.32.26-.65.65-.65.22,0,.43.13.56.32.2.33.38.65.55.97.05-2.14.14-4.15.18-5.41.11-3.02.19-5.3.45-6.57.06-.3.32-.52.63-.52.39,0,.65.32.65.65Z"/>
        <path class="cls-3" d="M32.24,39.5c.06,0,.11,0,.17.02,1.12.32,2.61,1.14,3.79,1.77.22.11.34.34.34.58s-.13.44-.31.55c-.02.01-.04.03-.06.03-1.16.58-2.65,1.36-3.62,1.92-.11.06-.22.09-.32.09-.32,0-.65-.26-.65-.65,0-.24.11-.45.32-.56.52-.3,1.16-.65,1.83-1.01-1.14-.09-2.6-.16-4.31-.16-1.47,0-5.15.22-8.19.22-2.07,0-3.66-1.59-3.66-3.66,0-1.81,1.31-3.45,3.23-3.45.34,0,.65.3.65.65s-.3.65-.65.65c-1.1,0-1.94.95-1.94,2.16,0,1.38.99,2.37,2.37,2.37,3,0,6.64-.22,8.19-.22,1.06,0,2.03.02,2.9.07-.1-.03-.19-.06-.27-.09-.28-.09-.47-.34-.47-.62,0-.39.32-.65.65-.65Z"/>
        <path class="cls-3" d="M16.88,84.99c0-.17.06-.32.19-.45.54-.54,1.4-1.06,2.39-1.06.86,0,1.4.39,2.07,1.06.34.34.58.45,1.06.45.65,0,1.27-.34,1.59-.67.45-.45,1.16-1.06,2.18-1.06s1.55.67,1.9,1.1c.26.34.45.41.69.41.63,0,1.12-.3,1.49-.67.13-.13.28-.19.45-.19.34,0,.65.3.65.65,0,.17-.06.32-.19.45-.5.5-1.29,1.06-2.39,1.06-.71,0-1.25-.37-1.68-.88-.34-.43-.58-.63-.9-.63-.5,0-.86.26-1.27.67-.54.54-1.42,1.06-2.5,1.06-.82,0-1.44-.32-1.96-.84-.62-.63-.73-.67-1.16-.67-.52,0-1.16.34-1.49.67-.13.13-.28.19-.45.19-.34,0-.65-.3-.65-.65ZM27.23,88.44c0-.22.11-.45.32-.56,1.53-.88,4.12-2.22,5.26-2.67.19-.06.24-.19.24-.32s-.06-.32-.37-.54c-.99-.69-3.6-2-4.98-2.39-.28-.09-.47-.34-.47-.63,0-.39.32-.65.65-.65.06,0,.11,0,.17.02,1.64.47,4.2,1.75,5.37,2.57.56.39.93.97.93,1.62s-.39,1.25-1.06,1.53c-1.01.41-3.6,1.75-5.09,2.59-.11.06-.22.09-.32.09-.32,0-.65-.26-.65-.65Z"/>
        <path class="cls-3" d="M108.14,38.91c-.38-.21-1.61.3-2.27.69-.22.13-.72.35-.98.2-.38-.21-.45-.5-.24-.88.06-.11.34-.34.56-.46.66-.38,2.42-1.32,3.57-.69.8.44,1.43,1.91,1.86,3.39.15.53.23.93.12,1.14-.25.46-.56.44-.89.26-.23-.13-.31-.42-.48-1.01-.43-1.48-.86-2.42-1.24-2.63Z"/>
        <path class="cls-3" d="M107.09,45.31c.38.21.47.51.26.89s-.51.47-.89.26c-1.37-.76-1.74-3.15-.98-4.53.42-.76,1.17-1.35,1.71-1.79.36-.3.64-.39.91-.25.38.21.47.51.26.89-.04.08-.15.19-.34.34-.27.22-1.08.87-1.4,1.44-.42.76-.29,2.33.47,2.75Z"/>
        <path class="cls-3" d="M113.3,83.5c2.14-1.79,6.81-5.28,8.8-6.8l-.54-.65c-.25-.3-.17-.71.08-.92.07-.06.16-.11.26-.13,1.68-.4,4.68-1.06,5.93-1.19.67-.08,1.31.1,1.7.57.29.35.57,1.06.22,1.86-.39.86-1.29,3.18-1.82,4.86-.04.12-.1.22-.2.31-.59.49-1.69-.43-2.17-.77-1.84,1.39-6.59,4.95-8.74,6.74-.27.22-.7.18-.92-.08-.96-1.16-1.97-2.3-2.58-2.79-.03-.03-.07-.05-.1-.09-.24-.28-.2-.68.08-.92ZM116.45,86.07l8.36-6.52c.66-.59,1.15-.25,1.15-.25l.96.67s1.33-3.53,1.63-4.31c.3-.78-.6-.55-.6-.55l-4.71.92h.02c.46.37.4,1.09-.07,1.44l-.48.35-8.07,6.12,1.81,2.14Z"/>
        <path class="cls-3" d="M3.05,19.26c.05-.07.1-.12.17-.18.79-.55,2.3-1.53,3.54-2.21.21-.12.46-.12.67.01.22.14.3.42.29.6-.09,1.19-.22,2.73-.22,3.95,0,.13-.04.26-.1.35-.18.28-.57.41-.9.2-.18-.12-.29-.31-.29-.55,0-.88.07-1.89.14-2.81-.89.54-1.83,1.16-2.35,1.53-.23.16-.52.16-.74.02-.33-.21-.37-.63-.2-.9ZM1.38,26.73s-.07.06-.09.1c-.39.4-1.41,1.84-2.21,3.09-.19.29-.61.39-.9.2s-.39-.61-.2-.9c.85-1.32,1.85-2.73,2.39-3.29.22-.22.56-.26.81-.1.33.21.37.63.2.9ZM4.96,21.52s-.07.06-.09.1c-.39.4-1.41,1.84-2.21,3.09-.19.29-.61.39-.9.2s-.39-.61-.2-.9c.85-1.32,1.85-2.73,2.39-3.29.22-.22.56-.26.81-.1.33.21.37.63.2.9Z"/>
        <path class="cls-3" d="M3.82,55.32c.06,0,.11,0,.17.02,1.12.32,2.61,1.14,3.79,1.77.22.11.34.34.34.58s-.13.44-.31.55c-.02.01-.04.03-.06.03-1.16.58-2.65,1.36-3.62,1.92-.11.06-.22.09-.32.09-.32,0-.65-.26-.65-.65,0-.24.11-.45.32-.56.52-.3,1.16-.65,1.83-1.01-1.14-.09-2.6-.16-4.31-.16-1.47,0-5.15.22-8.19.22-.34,0-.65-.3-.65-.65s.3-.65.65-.65c3,0,6.64-.22,8.19-.22,1.06,0,2.03.02,2.9.07-.1-.03-.19-.06-.27-.09-.28-.09-.47-.34-.47-.62,0-.39.32-.65.65-.65Z"/>
        <path class="cls-3" d="M-11.32,83.5c2.14-1.79,6.81-5.28,8.8-6.8l-.54-.65c-.25-.3-.17-.71.08-.92.07-.06.16-.11.26-.13,1.68-.4,4.68-1.06,5.93-1.19.67-.08,1.31.1,1.7.57.29.35.57,1.06.22,1.86-.39.86-1.29,3.18-1.82,4.86-.04.12-.1.22-.2.31-.59.49-1.69-.43-2.17-.77-1.84,1.39-6.59,4.95-8.74,6.74-.27.22-.7.18-.92-.08-.96-1.16-1.97-2.3-2.58-2.79-.03-.03-.07-.05-.1-.09-.24-.28-.2-.68.08-.92ZM-8.17,86.07L.19,79.55c.66-.59,1.15-.25,1.15-.25l.96.67s1.33-3.53,1.63-4.31c.3-.78-.6-.55-.6-.55l-4.71.92h.02c.46.37.4,1.09-.07,1.44l-.48.35-8.07,6.12,1.81,2.14Z"/>
      </g>
    </g>
  </g>
  <path class="cls-1" d="M100.05,74.16c-1.55-4.6-5.62-7.13-10.3-7.54-5.35-.46-10.78.26-16.12.62-2.37.16-4.81.35-7.19.15-.44-.04-.84-.14-1.25-.21.03-.91.06-1.8.23-2.72.38-1.95.89-3.86,1.34-5.79.6-2.58,1.13-5.17,1.69-7.76,1.3-5.98,2.61-11.95,3.91-17.93.04-.17-.01-.3,0-.47.05-.26.16-.49.16-.78,0-.21-.1-.42-.14-.63-.02-.11-.04-.21-.07-.32-.48-2.02-2.29-3.98-4.47-3.72-.17.02-.31.09-.47.12-.72,0-1.41.16-2.03.5-3.5,1.1-6.43,3.42-9.12,6-3.98,3.83-7.43,8.2-10.78,12.58-6.19,8.08-11.96,16.46-18.16,24.54-4.12,5.38-10.8,12.59-6.58,19.72,3.58,6.04,12.18,5.6,18.31,5.18,2.51-.17,5.02-.42,7.53-.51,1.29-.05,2.59-.06,3.88,0,.07,0,.13.01.2.02,0,0,0,0,0,0h0c-.28,1.95-.84,3.89-1.4,5.77-1.64,5.45-3.71,10.76-5.45,16.18-1.32,4.1-3.3,9.39-1.93,13.72.72,2.26,3.31,4.17,5.75,3.27,6.27-2.3,11.34-7.39,15.95-12.05,5.52-5.59,10.64-11.57,15.85-17.45,5.48-6.18,11.78-11.6,17.05-17.97,3.06-3.7,5.22-7.62,3.57-12.52ZM87.7,82.56c-2.64,2.93-5.48,5.67-8.28,8.44-3.47,3.43-6.67,7.1-9.89,10.76-4.26,4.84-8.53,9.68-13.09,14.25-1.11,1.11-2.3,2.12-3.45,3.18,1.4-4.3,2.96-8.53,4.37-12.83,2.3-7.01,6.07-18.7-4.63-20.27-4.71-.69-9.47-.01-14.18.28-2.56.16-6.36.6-8.81-.23-2.27-.77-.02-2.66.98-4.17,3.53-5.36,7.8-10.17,11.54-15.38,2.35-3.27,4.62-6.59,6.99-9.85,3.33-4.58,6.76-9.11,10.58-13.3.29-.32.61-.64.91-.96l-1.74,7.97c-.54,2.46-1.05,4.92-1.66,7.36-1.06,4.27-4.03,14.17.92,17.19,1.81,1.1,4.47,1.34,6.52,1.59,3.09.38,6.19.2,9.29-.02,3.34-.23,6.68-.55,10.02-.67,1.66-.06,6.12-.9,7.05,1.05.9,1.9-2.37,4.41-3.44,5.6Z"/>
</svg>