<?xml version="1.0" encoding="UTF-8"?>
<svg id="Warstwa_1" data-name="Warstwa 1" xmlns="http://www.w3.org/2000/svg" viewBox="0 0 120 159.11">
  <defs>
    <style>
      .cls-1 {
        fill: #333f88;
      }
    </style>
  </defs>
  <path class="cls-1" d="M36.87,100.31c-10.72-10.55-23.28-21.27-23.28-35.85,0-16.75,10.05-28.48,26.8-28.48,10.38,0,18.43,9.72,18.43,20.1,0,5.02-3.35,11.73-6.7,11.73s-5.03-1.68-5.03-5.03,1.67-4.86,1.67-6.7c0-5.03-3.35-10.05-8.37-10.05-11.06,0-16.75,7.37-16.75,18.43,0,9.88,8.88,18.09,20.1,28.81,4.36,4.19,8.04,8.71,11.06,13.4,12.56-23.79,47.57-32.5,47.57-45.56,0-5.53-12.23-19.43-20.1-19.43-10.55,0-13.4,7.7-18.43,7.7-3.35,0-5.03-1.67-5.03-5.02s11.39-12.73,23.45-12.73c13.4,0,30.15,19.1,30.15,29.48,0,25.13-51.93,28.64-51.93,61.98,0,4.86-1.67,6.7-5.03,6.7s-5.03-1.84-5.03-6.7c0-6.53-6.2-15.58-13.57-22.78Z"/>
</svg>