<?xml version="1.0" encoding="UTF-8"?>
<svg id="Warstwa_1" data-name="Warstwa 1" xmlns="http://www.w3.org/2000/svg" viewBox="0 0 120 159.11">
  <defs>
    <style>
      .cls-1 {
        fill: #333f88;
      }
    </style>
  </defs>
  <path class="cls-1" d="M21.64,108.35c0-1.51.67-3.02,2.01-4.02,8.54-6.37,18.26-11.56,26.13-14.91,3.18-1.34,3.69-2.18,3.69-3.69,0-1.34-.34-2.34-2.85-4.19-7.7-5.36-20.77-11.22-31.66-13.57-2.35-.5-4.02-2.51-4.02-4.86,0-3.02,2.51-5.03,5.03-5.03.34,0,.67.17,1.01.17,12.56,2.68,26.3,8.54,35.34,14.91,4.19,2.85,7.2,7.2,7.2,12.56,0,6.87-4.86,11.06-9.72,13.07-7.2,3.02-16.58,7.87-24.12,13.57-.84.67-2.01,1.01-3.02,1.01-2.68,0-5.03-2.18-5.03-5.03ZM46.76,121.75c0-1.67,1.01-3.35,2.51-4.36,16.92-10.05,36.85-21.77,43.89-25.29,3.02-1.51,3.85-2.85,3.85-3.85,0-.84-.67-2.01-3.52-4.86-10.05-10.05-29.65-21.27-48.58-40.2-1.01-1.01-1.51-2.18-1.51-3.52,0-2.68,2.35-5.03,5.03-5.03,1.34,0,2.51.5,3.52,1.51,17.92,17.92,36.85,28.48,48.58,40.2,2.51,2.51,6.53,6.03,6.53,11.89,0,7.37-5.86,11.06-9.55,12.9-6.37,3.18-26.63,14.91-43.22,24.96-.84.5-1.67.67-2.51.67-2.51,0-5.03-2.01-5.03-5.03Z"/>
</svg>