<?xml version="1.0" encoding="UTF-8"?>
<svg id="Warstwa_1" data-name="Warstwa 1" xmlns="http://www.w3.org/2000/svg" viewBox="0 0 120 159.11">
  <defs>
    <style>
      .cls-1 {
        fill: #333f88;
      }
    </style>
  </defs>
  <path class="cls-1" d="M106.54,121.97c1.42.47,3.2,1.54,3.91,2.25,2.37,2.37,2.37,4.74,0,7.11-1.3,1.3-3.67,1.3-7.23.12-3.55-1.18-9-4.5-21.44-16.94-6.87-6.87-12.79-13.74-15.63-17.53-12.2,11.25-28.54,13.62-43.59-1.42-11.84-11.84-18.36-34.94-6.51-46.78,2.25-2.25,2.96-2.73,4.03-3.55,1.42-2.61,1.07-5.09,5.69-9.71,10.42-10.42,29.02-7.23,39.44,3.2,14.22,14.21,16.82,34.82,7.58,50.22,2.61,4.03,9,11.37,16.11,18.48,9.48,9.48,15.4,13.74,17.65,14.57ZM23.15,55.88c-7.46,7.46-.95,25.11,6.51,32.57,11.84,11.85,22.27,8.53,30.79,0,11.84-11.84,9.48-30.8-2.37-42.64-6.39-6.39-18.83-9.59-25.23-3.2-3.55,3.55-2.96,7.23-5.33,9.59-1.42.95-3.2,2.49-4.38,3.67Z"/>
</svg>