<?xml version="1.0" encoding="UTF-8"?>
<svg id="Warstwa_1" data-name="Warstwa 1" xmlns="http://www.w3.org/2000/svg" xmlns:xlink="http://www.w3.org/1999/xlink" viewBox="0 0 93.98 21.58">
  <defs>
    <style>
      .cls-1 {
        fill: none;
      }

      .cls-2 {
        fill: #fff6e7;
      }

      .cls-3 {
        clip-path: url(#clippath-1);
      }

      .cls-4 {
        clip-path: url(#clippath-2);
      }

      .cls-5 {
        fill: #fff;
      }

      .cls-6 {
        opacity: .5;
      }

      .cls-7 {
        clip-path: url(#clippath);
      }
    </style>
    <clipPath id="clippath">
      <rect class="cls-1" x="-413.69" y="112.86" width="252.55" height="164.16"/>
    </clipPath>
    <clipPath id="clippath-1">
      <rect class="cls-1" x="-58.9" y="112.82" width="252.55" height="164.16"/>
    </clipPath>
    <clipPath id="clippath-2">
      <rect class="cls-1" x="225.16" y="112.86" width="252.55" height="164.16"/>
    </clipPath>
  </defs>
  <g class="cls-6">
    <g class="cls-7">
      <g>
        <path class="cls-2" d="M3.06,27.28s-.06.06-.08.09c-.46.52-1.18,1.67-1.86,2.82-.16.27-.53.36-.8.21-2.14-1.26-6.83-3.7-8.65-4.66-.37.37-1.21,1.34-1.8.99-.1-.06-.16-.14-.22-.24-.7-1.41-1.84-3.31-2.3-4.01-.43-.66-.28-1.32-.08-1.67.28-.47.81-.72,1.41-.75,1.12-.06,3.85.08,5.38.19.09,0,.18.04.25.08.25.15.38.5.21.8l-.38.65c1.97,1.05,6.58,3.44,8.72,4.7.28.17.37.51.21.8ZM.96,28.21c-.38.18-.77.38-1.14.57.2.12.41.22.6.33.18-.3.36-.62.55-.89ZM-2.26,27.64c.29.15.56.31.84.45.86-.42,1.83-.89,2.54-1.25-.27-.16-.54-.31-.85-.48-.61.34-1.59.82-2.53,1.28ZM-2,25.14c-.57.32-1.55.84-2.47,1.32.31.16.63.35.94.51.85-.4,1.83-.89,2.57-1.26-.34-.18-.7-.39-1.04-.57ZM-6.57,25.36c.28.14.55.3.84.45.8-.41,1.76-.92,2.49-1.33-.26-.13-.51-.28-.77-.41-.6.32-1.61.83-2.56,1.29ZM-9.89,24.87l.25.49c.41-.35.91-1.16,1.47-.85.08.05.21.1.33.17.83-.41,1.82-.87,2.57-1.26-.31-.16-.61-.34-.87-.47-.9.5-2.62,1.36-3.74,1.92ZM-7.17,21.72l.21-.35c-.06-.01-.09.04-.15.07-.77.38-2.66,1.34-3.68,1.85.12.18.23.38.33.58.92-.45,2.3-1.15,3.24-1.65-.07-.15-.06-.33.04-.49ZM-11.4,22.27c.51-.26,1.31-.65,2.06-1.02-.8-.02-1.51-.03-1.9-.02-.38.03-.46.13-.48.17-.14.23.16.61.32.87Z"/>
        <path class="cls-2" d="M22.31,3.86c.31-.23.58-.2.82.12.07.09.12.2.18.4.3.99,1.05,3.53,1.44,4.7.14.41.09.66-.13.83-.34.26-.58.2-.97,0-1.15-.57-2.36-.75-3.01-.84s-.83-.13-.96-.3c-.2-.26-.2-.58.12-.82.17-.13.36-.13,1.02-.04.35.05,1.39.17,2.53.62l-.98-3.3c-.8.53-2.05,1.35-2.27,1.51-.31.23-.58.2-.82-.12s-.2-.58.12-.82c.12-.09.57-.38,1.09-.72-1.62-2.06-3.41-4.31-4.47-5.72-.47-.62-1.46-2.55-1.77-3.29-.16-.37-.12-.64.13-.83.31-.23.58-.2.82.12.05.06.08.14.16.31.31.74,1.12,2.36,1.59,2.98.91,1.21,3.17,4.05,4.51,5.77.41-.26.75-.49.86-.57Z"/>
      </g>
    </g>
  </g>
  <g class="cls-6">
    <g class="cls-3">
      <g>
        <path class="cls-2" d="M24.75,27.25s-.06.06-.08.09c-.46.52-1.18,1.67-1.86,2.82-.16.27-.53.36-.8.21-2.14-1.26-6.83-3.7-8.65-4.66-.37.37-1.21,1.34-1.8.99-.1-.06-.16-.14-.22-.24-.7-1.41-1.84-3.31-2.3-4.01-.43-.66-.28-1.32-.08-1.67.28-.47.81-.72,1.41-.75,1.12-.06,3.85.08,5.38.19.09,0,.18.04.25.08.25.15.38.5.21.8l-.38.65c1.97,1.05,6.58,3.44,8.72,4.7.28.17.37.51.21.8ZM22.65,28.18c-.38.18-.77.38-1.14.57.2.12.41.22.6.33.18-.3.36-.62.55-.89ZM19.43,27.61c.29.15.56.31.84.45.86-.42,1.83-.89,2.54-1.25-.27-.16-.54-.31-.85-.48-.61.34-1.59.82-2.53,1.28ZM19.69,25.1c-.57.32-1.55.84-2.47,1.32.31.16.63.35.94.51.85-.4,1.83-.89,2.57-1.26-.34-.18-.7-.39-1.04-.57ZM15.12,25.32c.28.14.55.3.84.45.8-.41,1.76-.92,2.49-1.33-.26-.13-.51-.28-.77-.41-.6.32-1.61.83-2.56,1.29ZM11.8,24.84l.25.49c.41-.35.91-1.16,1.47-.85.08.05.21.1.33.17.83-.41,1.82-.87,2.57-1.26-.31-.16-.61-.34-.87-.47-.9.5-2.62,1.36-3.74,1.92ZM14.51,21.68l.21-.35c-.06-.01-.09.04-.15.07-.77.38-2.66,1.34-3.68,1.85.12.18.23.38.33.58.92-.45,2.3-1.15,3.24-1.65-.07-.15-.06-.33.04-.49ZM10.29,22.24c.51-.26,1.31-.65,2.06-1.02-.8-.02-1.51-.03-1.9-.02-.38.03-.46.13-.48.17-.14.23.16.61.32.87Z"/>
        <path class="cls-2" d="M44,3.82c.31-.23.58-.2.82.12.07.09.12.2.18.4.3.99,1.05,3.53,1.44,4.7.14.41.09.66-.13.83-.34.26-.58.2-.97,0-1.15-.57-2.36-.75-3.01-.84s-.83-.13-.96-.3c-.2-.26-.2-.58.12-.82.17-.13.36-.13,1.02-.04.35.05,1.39.17,2.53.62l-.98-3.3c-.8.53-2.05,1.35-2.27,1.51-.31.23-.58.2-.82-.12s-.2-.58.12-.82c.12-.09.57-.38,1.09-.72-1.62-2.06-3.41-4.31-4.47-5.72-.47-.62-1.46-2.55-1.77-3.29-.16-.37-.12-.64.13-.83.31-.23.58-.2.82.12.05.06.08.14.16.31.31.74,1.12,2.36,1.59,2.98.91,1.21,3.17,4.05,4.51,5.77.41-.26.75-.49.86-.57Z"/>
        <path class="cls-2" d="M103.28,17.83c.06,0,.1,0,.15.02,1,.29,2.32,1.02,3.38,1.57.19.1.31.31.31.52s-.12.39-.27.49c-.02.01-.04.02-.05.03-1.04.52-2.36,1.21-3.23,1.71-.1.06-.19.08-.29.08-.29,0-.58-.23-.58-.58,0-.21.1-.4.29-.5.46-.27,1.03-.58,1.63-.9-1.02-.08-2.32-.14-3.84-.14-1.31,0-4.59.19-7.3.19-.31,0-.58-.27-.58-.58s.27-.58.58-.58c2.67,0,5.91-.19,7.3-.19.95,0,1.81.02,2.58.06-.09-.03-.17-.06-.24-.08-.25-.08-.42-.31-.42-.56,0-.35.29-.58.58-.58Z"/>
        <path class="cls-2" d="M64.35,8.31s-.02.08-.02.12c-.19.94-.27,2.98-.37,5.66-.04,1.16-.12,3.03-.16,4.99.22-.43.42-.85.61-1.23.1-.21.31-.33.52-.33.35,0,.58.29.58.58,0,.08-.02.17-.06.25-.46.98-1.09,2.23-1.75,3.3-.1.15-.27.29-.5.29-.26,0-.48-.19-.55-.43-.34-.77-.83-1.86-1.48-2.94-.06-.1-.08-.19-.08-.29,0-.29.23-.58.58-.58.19,0,.38.12.5.29.18.29.34.58.49.87.04-1.9.12-3.7.16-4.82.1-2.69.17-4.72.4-5.86.06-.27.29-.46.56-.46.35,0,.58.29.58.58Z"/>
        <path class="cls-2" d="M17.57,3.73c.06,0,.1,0,.15.02,1,.29,2.32,1.02,3.38,1.57.19.1.31.31.31.52s-.12.39-.27.49c-.02.01-.04.02-.05.03-1.04.52-2.36,1.21-3.23,1.71-.1.06-.19.08-.29.08-.29,0-.58-.23-.58-.58,0-.21.1-.4.29-.5.46-.27,1.03-.58,1.63-.9-1.02-.08-2.32-.14-3.84-.14-1.31,0-4.59.19-7.3.19-1.84,0-3.26-1.42-3.26-3.26C4.51,1.35,5.69-.11,7.39-.11c.31,0,.58.27.58.58s-.27.58-.58.58c-.98,0-1.73.85-1.73,1.92,0,1.23.88,2.11,2.11,2.11,2.67,0,5.91-.19,7.3-.19.95,0,1.81.02,2.58.06-.09-.03-.17-.06-.24-.08-.25-.08-.42-.31-.42-.56,0-.35.29-.58.58-.58Z"/>
        <path class="cls-2" d="M85.19,3.21c-.34-.19-1.44.27-2.02.61-.2.11-.64.31-.88.18-.34-.19-.4-.44-.21-.78.06-.1.3-.3.49-.41.59-.34,2.16-1.18,3.18-.62.71.39,1.28,1.7,1.66,3.02.14.47.21.83.11,1.01-.23.41-.5.39-.79.23-.2-.11-.28-.38-.43-.9-.38-1.32-.76-2.15-1.1-2.34Z"/>
        <path class="cls-2" d="M84.26,8.91c.34.19.42.45.23.79s-.45.42-.79.23c-1.22-.68-1.55-2.81-.88-4.03.38-.68,1.04-1.2,1.53-1.6.32-.26.57-.35.81-.22.34.19.42.45.23.79-.04.07-.14.17-.3.3-.24.2-.96.78-1.24,1.29-.38.68-.26,2.07.42,2.45Z"/>
      </g>
    </g>
  </g>
  <g class="cls-6">
    <g class="cls-4">
      <g>
        <path class="cls-2" d="M86.75,27.28s-.06.06-.08.09c-.46.52-1.18,1.67-1.86,2.82-.16.27-.53.36-.8.21-2.14-1.26-6.83-3.7-8.65-4.66-.37.37-1.21,1.34-1.8.99-.1-.06-.16-.14-.22-.24-.7-1.41-1.84-3.31-2.3-4.01-.43-.66-.28-1.32-.08-1.67.28-.47.81-.72,1.41-.75,1.12-.06,3.85.08,5.38.19.09,0,.18.04.25.08.25.15.38.5.21.8l-.38.65c1.97,1.05,6.58,3.44,8.72,4.7.28.17.37.51.21.8ZM84.65,28.21c-.38.18-.77.38-1.14.57.2.12.41.22.6.33.18-.3.36-.62.55-.89ZM81.42,27.64c.29.15.56.31.84.45.86-.42,1.83-.89,2.54-1.25-.27-.16-.54-.31-.85-.48-.61.34-1.59.82-2.53,1.28ZM81.68,25.14c-.57.32-1.55.84-2.47,1.32.31.16.63.35.94.51.85-.4,1.83-.89,2.57-1.26-.34-.18-.7-.39-1.04-.57ZM77.11,25.36c.28.14.55.3.84.45.8-.41,1.76-.92,2.49-1.33-.26-.13-.51-.28-.77-.41-.6.32-1.61.83-2.56,1.29ZM73.8,24.87l.25.49c.41-.35.91-1.16,1.47-.85.08.05.21.1.33.17.83-.41,1.82-.87,2.57-1.26-.31-.16-.61-.34-.87-.47-.9.5-2.62,1.36-3.74,1.92ZM76.51,21.72l.21-.35c-.06-.01-.09.04-.15.07-.77.38-2.66,1.34-3.68,1.85.12.18.23.38.33.58.92-.45,2.3-1.15,3.24-1.65-.07-.15-.06-.33.04-.49ZM72.29,22.27c.51-.26,1.31-.65,2.06-1.02-.8-.02-1.51-.03-1.9-.02-.38.03-.46.13-.48.17-.14.23.16.61.32.87Z"/>
        <path class="cls-2" d="M79.57,3.76c.06,0,.1,0,.15.02,1,.29,2.32,1.02,3.38,1.57.19.1.31.31.31.52s-.12.39-.27.49c-.02.01-.04.02-.05.03-1.04.52-2.36,1.21-3.23,1.71-.1.06-.19.08-.29.08-.29,0-.58-.23-.58-.58,0-.21.1-.4.29-.5.46-.27,1.03-.58,1.63-.9-1.02-.08-2.32-.14-3.84-.14-1.31,0-4.59.19-7.3.19-1.84,0-3.26-1.42-3.26-3.26,0-1.61,1.17-3.07,2.88-3.07.31,0,.58.27.58.58s-.27.58-.58.58c-.98,0-1.73.85-1.73,1.92,0,1.23.88,2.11,2.11,2.11,2.67,0,5.91-.19,7.3-.19.95,0,1.81.02,2.58.06-.09-.03-.17-.06-.24-.08-.25-.08-.42-.31-.42-.56,0-.35.29-.58.58-.58Z"/>
        <path class="cls-2" d="M54.24,17.87c.06,0,.1,0,.15.02,1,.29,2.32,1.02,3.38,1.57.19.1.31.31.31.52s-.12.39-.27.49c-.02.01-.04.02-.05.03-1.04.52-2.36,1.21-3.23,1.71-.1.06-.19.08-.29.08-.29,0-.58-.23-.58-.58,0-.21.1-.4.29-.5.46-.27,1.03-.58,1.63-.9-1.02-.08-2.32-.14-3.84-.14-1.31,0-4.59.19-7.3.19-.31,0-.58-.27-.58-.58s.27-.58.58-.58c2.67,0,5.91-.19,7.3-.19.95,0,1.81.02,2.58.06-.09-.03-.17-.06-.24-.08-.25-.08-.42-.31-.42-.56,0-.35.29-.58.58-.58Z"/>
        <path class="cls-2" d="M15.31,8.34s-.02.08-.02.12c-.19.94-.27,2.98-.37,5.66-.04,1.16-.12,3.03-.16,4.99.22-.43.42-.85.61-1.23.1-.21.31-.33.52-.33.35,0,.58.29.58.58,0,.08-.02.17-.06.25-.46.98-1.09,2.23-1.75,3.3-.1.15-.27.29-.5.29-.26,0-.48-.19-.55-.43-.34-.77-.83-1.86-1.48-2.94-.06-.1-.08-.19-.08-.29,0-.29.23-.58.58-.58.19,0,.38.12.5.29.18.29.34.58.49.87.04-1.9.12-3.7.16-4.82.1-2.69.17-4.72.4-5.86.06-.27.29-.46.56-.46.35,0,.58.29.58.58Z"/>
        <path class="cls-2" d="M36.15,3.25c-.34-.19-1.44.27-2.02.61-.2.11-.64.31-.88.18-.34-.19-.4-.44-.21-.78.06-.1.3-.3.49-.41.59-.34,2.16-1.18,3.18-.62.71.39,1.28,1.7,1.66,3.02.14.47.21.83.11,1.01-.23.41-.5.39-.79.23-.2-.11-.28-.38-.43-.9-.38-1.32-.76-2.15-1.1-2.34Z"/>
        <path class="cls-2" d="M35.22,8.94c.34.19.42.45.23.79s-.45.42-.79.23c-1.22-.68-1.55-2.81-.88-4.03.38-.68,1.04-1.2,1.53-1.6.32-.26.57-.35.81-.22.34.19.42.45.23.79-.04.07-.14.17-.3.3-.24.2-.96.78-1.24,1.29-.38.68-.26,2.07.42,2.45Z"/>
      </g>
    </g>
  </g>
  <g>
    <path class="cls-5" d="M23.87,3.08c.35,0,.61-.26.61-.61,0-.41-.2-1.02-.61-1.02-.35,0-.61.26-.61.61s.26,1.02.61,1.02Z"/>
    <path class="cls-5" d="M93.08,16.57s0-.01,0-.02c0-.04-.01-.08-.02-.12,0,0,0-.02,0-.03-.02-.05-.04-.09-.06-.13,0,0-.01-.02-.02-.03-.02-.03-.05-.06-.08-.09,0,0-.01-.01-.02-.02-.04-.03-.08-.05-.13-.07,0,0,0,0-.01,0-1.78-.7-4.81-3.28-4.84-3.31-.24-.2-.6-.18-.8.06-.2.24-.18.6.06.8.09.08,1.53,1.31,3.06,2.33-3.58-.09-10.66-.22-16.58.05-5.61.26-10.04.16-14.33.07-2.05-.04-3.98-.09-5.94-.09-5.94,0-20.08.28-20.23.29-2.33.07-4.7.07-7.03,0l-8.44-.27c-.79,0-1.56.21-2.24.6-.02.01-.05.03-.07.05-.02.01-1.6,1.25-2.03,1.57l-1.77,1.35v-.04c.06-.55.05-1.46,0-1.99-.1-.87-.81-1.54-1.68-1.59l-1.71-.09c-2.53-.14-3.98-.11-6.74.15-.31.03-.54.31-.51.62.03.31.31.54.62.51,2.69-.25,4.1-.29,6.57-.15l1.71.09c.32.02.58.26.61.58.05.45.06,1.29.01,1.76l-.13,1.34c-.02.23.09.44.29.55.09.05.18.07.28.07.12,0,.24-.04.35-.12l2.79-2.13c.41-.3,1.78-1.37,2.02-1.56.5-.28,1.07-.43,1.62-.43l8.42.27c2.36.08,4.75.07,7.1,0,.14,0,14.27-.29,20.2-.29,1.95,0,3.87.04,5.92.09,4.11.09,8.76.19,14.41-.07,5.97-.27,13.14-.14,16.66-.04-1.26.72-2.84,1.73-3.79,2.75-.21.23-.2.59.03.8.11.1.25.15.39.15.15,0,.31-.06.42-.18,1.47-1.59,4.87-3.26,5.32-3.48.12-.04.22-.13.28-.23,0,0,.01-.02.02-.03.02-.04.04-.08.05-.12,0,0,0-.01,0-.02.01-.04.02-.08.02-.12,0,0,0-.02,0-.03,0,0,0,0,0-.01Z"/>
    <path class="cls-5" d="M11.3,10.7c1.08,0,1.55-.94,1.98-1.83.34-.7.64-1.34.96-2.06.66,2.34,2.04,3.89,3.81,3.89,0,0,0,0,0,0h0c1.74,0,3.49-1.36,4.68-2.85.28,1.47,1.17,2.85,3.06,2.85,1.11,0,2.34-.28,3.45-.74.7.56,1.71.68,2.17.67.01,0,.03,0,.04,0,.96,0,1.88-.25,2.63-.91.83-.75,1.28-1.8,1.8-2.77.19-.36.42-.87.81-1.06.48-.24.84.37,1.04.72.31.54.49,1.16.7,1.74.22.62.41,1.25.54,1.9.13.66,1.09.46,1.12-.15.07-1.26.4-2.57,1.38-3.46.56-.5,1.26-.3,1.93-.19.32.06.61.02.89-.05-.12,1.13.12,2.03.12,2.03.32,1.13,1.23,2.02,2.51,2.02s2.15-.98,2.7-1.96c.32,1.53,1.08,2.21,2.21,2.21,1.93,0,2.62-1.64,3.53-3.44.68-1.38,1.04-1.66,1.38-1.66.32,0,.57.13.57,1.7,0,1.38.13,2.83,1.51,2.83,1.19,0,1.85-1.17,2.55-2.23.81-1.21,1.28-1.74,1.6-1.74.13,0,.38.06.38,1.7,0,1.55.55,2.83,1.89,2.83,1.11,0,2.34-.28,3.45-.74.85.53,1.8.87,2.85.77,2.37-.22,3.7-2.54,4.64-5.17.02,1.38.28,2.98.58,3.98.06.21.26.4.55.4.25,0,.47-.17.55-.42.24-.81.46-1.41.72-1.86.52,1.33,1.56,3.41,2.93,3.41.47,0,1.7-.25,1.7-.94,0-.32-.26-.57-.57-.57-.11,0-.25.04-.34.11-.28.21-.51.26-.79.26-.62,0-1.71-2.12-2.11-3.29.28-.3.58-.55,1.51-.67.28-.04.49-.28.49-.57,0-.34-.26-.57-.57-.57h-.08c-1.86.3-2.49,1.08-3.28,2.49-.09-.68-.15-1.34-.15-1.93,0-2.04-.14-2.7.22-4.54,0-.04.02-.08.02-.11,0-.28-.23-.57-.57-.57-.26,0-.49.19-.55.45-.25,1.17-.89,3.49-1.72,5.52-.83,2.03-2.09,3.22-3.29,3.39-.6.09-1.18-.07-1.46-.25,1.11-.7,2.06-1.72,2.06-2.96,0-1.06-.83-1.89-1.89-1.89-1.68,0-2.83,1.43-2.83,3.02,0,.6.17,1.15.47,1.6-.85.3-1.76.47-2.55.47-.36,0-.76-.23-.76-1.7,0-1.38-.13-2.83-1.51-2.83-1.19,0-1.85,1.17-2.55,2.23-.81,1.21-1.28,1.74-1.6,1.74-.13,0-.38-.06-.38-1.7,0-1.45-.28-2.83-1.7-2.83-1.17,0-1.76,1.04-2.4,2.3-.98,1.98-1.42,2.79-2.51,2.79-.68,0-1.17.23-1.3-2.75-.02-.42-.02-.89-.02-1.4,0-.26-.23-.57-.57-.57-.3,0-.53.25-.57.55-.24,1.96-1.2,3.87-2.45,3.92-.98.04-1.51-.73-1.51-1.83,0-.34.04-1.08.17-1.77,0-.04.02-.08.02-.11,0-.28-.23-.57-.57-.57-.06,0-.13.01-.19.03-.01,0-.02,0-.04,0-.32.08-.65.27-.99.28-.37.02-.76-.14-1.13-.17-.82-.07-1.56.15-2.14.75-.52.55-.88,1.16-1.14,1.81-.21-.58-.4-1.18-.71-1.72-.28-.49-.71-1.07-1.27-1.26-.52-.18-1.08-.06-1.52.26-.93.67-1.29,1.95-1.86,2.89-.32.52-.71,1.03-1.26,1.31-.5.26-1.06.29-1.61.25-.24-.04-.46-.09-.67-.16,1.11-.7,2.06-1.72,2.06-2.96,0-1.06-.83-1.89-1.89-1.89-1.68,0-2.83,1.43-2.83,3.02,0,.6.17,1.15.47,1.6-.85.3-1.76.47-2.55.47-1.55,0-2.08-1.32-2.08-3.4,0-.3-.26-.57-.57-.57-.21,0-.42.13-.51.32-.89,1.77-3.06,3.64-4.59,3.64-1.21,0-2.6-1.42-3-4.44.74-1.45,1.53-2.93,2.45-3.85.11-.11.17-.25.17-.4,0-.3-.26-.57-.57-.57-.15,0-.28.06-.4.17-1.94,1.94-3.23,5.44-4.45,7.89-.51,1-.72,1.19-.96,1.19-.32,0-.6-.49-.6-1.51,0-2.06.19-3.66.19-6.04,0-.3-.25-.57-.57-.57-.3,0-.55.25-.57.55-.08,2.34-.19,3.96-.19,6.06,0,.87.17,2.64,1.74,2.64ZM70.15,5.61c.45,0,.76.3.76.76,0,.74-.76,1.62-2.04,2.28-.26-.3-.42-.66-.42-1.15,0-1.06.74-1.89,1.7-1.89ZM30.71,5.61c.45,0,.76.3.76.76,0,.74-.76,1.62-2.04,2.28-.26-.3-.42-.66-.42-1.15,0-1.06.74-1.89,1.7-1.89Z"/>
  </g>
</svg>